<?xml version="1.0" encoding="UTF-8" standalone="no"?><!DOCTYPE svg PUBLIC "-//W3C//DTD SVG 1.1//EN" "http://www.w3.org/Graphics/SVG/1.1/DTD/svg11.dtd"><svg width="100%" height="100%" viewBox="0 0 500 500" version="1.1" xmlns="http://www.w3.org/2000/svg" xmlns:xlink="http://www.w3.org/1999/xlink" xml:space="preserve" xmlns:serif="http://www.serif.com/" style="fill-rule:evenodd;clip-rule:evenodd;stroke-linejoin:round;stroke-miterlimit:1.41421;"><circle cx="250" cy="250" r="250" style="fill:#fef052;"/><clipPath id="_clip1"><circle cx="250" cy="250" r="250"/></clipPath><g clip-path="url(#_clip1)"><g transform="matrix(1.50944,0,0,1.50944,-110.331,-106.06)"><path d="M151.106,139.055l28.076,0c10.863,0.073 19.011,4.587 24.442,13.542c1.946,3.01 3.175,6.166 3.689,9.469c0.404,3.303 0.605,9.01 0.605,17.121c0,8.625 -0.312,14.644 -0.935,18.057c-0.294,1.725 -0.734,3.266 -1.322,4.624c-0.624,1.321 -1.376,2.697 -2.257,4.129c-2.349,3.78 -5.615,6.899 -9.799,9.358c-4.147,2.643 -9.23,3.964 -15.249,3.964l-27.25,0l0,-80.264Zm12.166,68.758l14.534,0c6.826,0 11.781,-2.33 14.863,-6.991c1.358,-1.725 2.221,-3.909 2.588,-6.551c0.33,-2.606 0.495,-7.487 0.495,-14.644c0,-6.973 -0.165,-11.964 -0.495,-14.973c-0.441,-3.01 -1.487,-5.45 -3.138,-7.322c-3.377,-4.661 -8.148,-6.918 -14.313,-6.771l-14.534,0l0,57.252Z" style="fill:#232323;fill-rule:nonzero;"/><path d="M222.122,139.055l51.252,0l0,11.506l-39.086,0l0,22.901l33.361,0l0,10.79l-33.361,0l0,23.561l39.086,0l0,11.506l-51.252,0l0,-80.264Z" style="fill:#232323;fill-rule:nonzero;"/><path d="M276.457,139.055l12.882,0l18.221,61.106l0.221,0l18.277,-61.106l12.881,0l-26.534,80.264l-9.469,0l-26.479,-80.264Z" style="fill:#232323;fill-rule:nonzero;"/><path d="M154.437,262.644l-21.966,0l0,-10.845l56.152,0l0,10.845l-21.965,0l0,69.419l-12.221,0l0,-69.419Z" style="fill:#232323;fill-rule:nonzero;"/><rect x="197.211" y="251.799" width="12.166" height="80.264" style="fill:#232323;fill-rule:nonzero;"/><path d="M238.444,289.234l18.002,0c4.514,-0.074 7.909,-1.468 10.184,-4.184c2.166,-2.643 3.248,-5.579 3.248,-8.808c0,-2.679 -0.44,-4.937 -1.321,-6.772c-0.918,-1.651 -2.202,-2.954 -3.854,-3.908c-2.495,-1.578 -5.395,-2.331 -8.698,-2.257l-17.561,0l0,25.929Zm-12.166,-37.435l29.067,0c3.156,0 6.202,0.294 9.138,0.881c2.936,0.771 5.909,2.349 8.918,4.734c2.533,1.799 4.588,4.368 6.166,7.707c1.652,3.23 2.477,7.047 2.477,11.451c0,5.945 -2.092,11.359 -6.275,16.24c-4.294,5.138 -10.57,7.78 -18.828,7.927l-18.497,0l0,31.324l-12.166,0l0,-80.264Z" style="fill:#232323;fill-rule:nonzero;"/><path d="M294.101,312.575c6.385,5.248 13.982,7.909 22.791,7.983c10.423,-0.147 15.707,-3.872 15.854,-11.176c0.074,-5.982 -3.413,-9.579 -10.459,-10.79c-3.23,-0.44 -6.772,-0.936 -10.625,-1.486c-6.9,-1.138 -12.148,-3.688 -15.745,-7.652c-3.707,-4.074 -5.56,-9.028 -5.56,-14.864c0,-7.01 2.331,-12.662 6.992,-16.956c4.514,-4.257 10.918,-6.422 19.212,-6.496c9.983,0.221 18.663,2.992 26.039,8.313l-6.771,10.019c-6.019,-3.963 -12.643,-6.018 -19.873,-6.165c-3.744,0 -6.863,0.936 -9.359,2.807c-2.606,1.945 -3.945,4.845 -4.019,8.698c0,2.312 0.9,4.404 2.698,6.276c1.798,1.909 4.679,3.23 8.643,3.964c2.202,0.367 5.211,0.789 9.028,1.266c7.524,1.028 13.084,3.725 16.681,8.092c3.56,4.294 5.34,9.286 5.34,14.974c-0.404,15.341 -9.8,23.122 -28.186,23.342c-11.891,0 -22.113,-3.67 -30.664,-11.01l7.983,-9.139Z" style="fill:#232323;fill-rule:nonzero;"/></g></g></svg>